<svg width="31.865234" height="21.166870" viewBox="0 0 31.8652 21.1669" fill="none" xmlns="http://www.w3.org/2000/svg" xmlns:xlink="http://www.w3.org/1999/xlink">
	<desc>
			Created with Pixso.
	</desc>
	<defs/>
	<path id="Vector" d="M12.0264 20.8951L12.0176 20.8916L11.9893 20.8776C11.8247 20.795 11.6611 20.7102 11.499 20.6233C9.55054 19.568 7.72949 18.3283 6.06641 16.9249C3.12085 14.4201 0 10.7031 0 6.12509C0 2.70908 3.15405 9.15527e-05 6.96118 9.15527e-05C8.01953 -0.00463867 9.06543 0.20816 10.021 0.62262C10.9766 1.03711 11.8174 1.64261 12.481 2.39407C13.1445 1.64246 13.9856 1.03687 14.9414 0.622375C15.8972 0.207886 16.9434 -0.00482178 18.002 9.15527e-05C21.8076 9.15527e-05 24.9619 2.70908 24.9619 6.12509C24.9619 10.7043 21.8411 14.4213 18.8955 16.9237C17.2324 18.3272 15.4114 19.5669 13.4626 20.6221C13.3008 20.7094 13.1372 20.7946 12.9724 20.8776L12.9443 20.8916L12.9353 20.8962L12.9314 20.8974C12.7927 20.9644 12.481 20.9995 12.481 20.9995L12.0303 20.8974L12.0264 20.8951Z" fill="#FFFFFF" fill-opacity="1.000000" fill-rule="nonzero"/>
	<path id="offline_bolt" d="M23.3362 18.9669L26.8364 12.7335L24.4224 12.7335L24.4224 8.7002L20.8018 14.9335L23.3362 14.9335L23.3362 18.9669ZM23.8191 21.1668C22.7061 21.1668 21.6599 20.9743 20.6809 20.5894C19.7019 20.2043 18.8503 19.6819 18.1262 19.0219C17.4021 18.3618 16.8289 17.5858 16.4062 16.6935C15.9839 15.8013 15.7727 14.848 15.7727 13.8335C15.7727 12.8191 15.9839 11.8658 16.4062 10.9735C16.8289 10.0813 17.4021 9.30518 18.1262 8.64517C18.8503 7.98517 19.7019 7.46268 20.6809 7.0777C21.6599 6.69269 22.7061 6.50018 23.8191 6.50018C24.9321 6.50018 25.978 6.69269 26.957 7.0777C27.936 7.46268 28.7876 7.98517 29.5117 8.64517C30.2358 9.30518 30.8093 10.0813 31.2317 10.9735C31.6541 11.8658 31.8652 12.8191 31.8652 13.8335C31.8652 14.848 31.6541 15.8013 31.2317 16.6935C30.8093 17.5858 30.2358 18.3618 29.5117 19.0219C28.7876 19.6819 27.936 20.2043 26.957 20.5894C25.978 20.9743 24.9321 21.1668 23.8191 21.1668Z" fill="#894189" fill-opacity="1.000000" fill-rule="nonzero"/>
	<path id="offline_bolt" d="M23.7458 18.5002L26.9277 12.8335L24.7334 12.8335L24.7334 9.16681L21.4417 14.8335L23.7458 14.8335L23.7458 18.5002ZM24.1848 20.5002C23.1729 20.5002 22.2219 20.3251 21.332 19.9751C20.4419 19.6252 19.6677 19.1501 19.0095 18.5501C18.3511 17.9501 17.8298 17.2446 17.4458 16.4335C17.0618 15.6224 16.8699 14.7557 16.8699 13.8335C16.8699 12.9113 17.0618 12.0446 17.4458 11.2335C17.8298 10.4224 18.3511 9.7168 19.0095 9.11682C19.6677 8.51682 20.4419 8.04181 21.332 7.6918C22.2219 7.3418 23.1729 7.16681 24.1848 7.16681C25.1965 7.16681 26.1475 7.3418 27.0376 7.6918C27.9275 8.04181 28.7017 8.51682 29.3599 9.11682C30.0183 9.7168 30.5396 10.4224 30.9236 11.2335C31.3076 12.0446 31.4995 12.9113 31.4995 13.8335C31.4995 14.7557 31.3076 15.6224 30.9236 16.4335C30.5396 17.2446 30.0183 17.9501 29.3599 18.5501C28.7017 19.1501 27.9275 19.6252 27.0376 19.9751C26.1475 20.3251 25.1965 20.5002 24.1848 20.5002Z" fill="#FFFFFF" fill-opacity="1.000000" fill-rule="nonzero"/>
</svg>
